<svg xmlns="http://www.w3.org/2000/svg" viewBox="0 0 186.55 208.44" height="60">
  <defs>
    <linearGradient id="a" x1="985.35" x2="1079.39" y1="-1255.24" y2="-1255.24" gradientTransform="matrix(.99 .17 .17 -.99 -758.44 -1255.24)" gradientUnits="userSpaceOnUse">
      <stop offset="0" stop-color="#89c442"/>
      <stop offset="1" stop-color="#74b844"/>
    </linearGradient>
    <linearGradient id="b" x1="987.47" x2="1068.68" y1="-1259.05" y2="-1259.05" gradientTransform="matrix(.99 .17 .17 -.99 -767.42 -1260.93)" gradientUnits="userSpaceOnUse">
      <stop offset="0" stop-color="#74b844"/>
      <stop offset="1" stop-color="#4a9634"/>
    </linearGradient>
    <linearGradient id="c" x1="1011.4" x2="1169.17" y1="2339.08" y2="2339.08" gradientTransform="matrix(-.95 .32 .32 .95 413.25 -2453.64)" gradientUnits="userSpaceOnUse">
      <stop offset="0" stop-color="#c1ea71"/>
      <stop offset="1" stop-color="#acda55"/>
    </linearGradient>
    <linearGradient id="d" x1="1014.99" x2="1152.47" y1="2330.51" y2="2330.51" gradientTransform="matrix(-.95 .32 .32 .95 413.26 -2453.5)" gradientUnits="userSpaceOnUse">
      <stop offset="0" stop-color="#acda55"/>
      <stop offset="1" stop-color="#89c442"/>
    </linearGradient>
  </defs>
  <path fill="url(#a)" d="M3.51 92.39c2.23 2.61 46.1 17.22 61.35 35S86.76 161 84.61 176.2s-11.47 15-15.54 20.53-9.69 12.39-20.49 11.66c-14.14-.95-28.72-8-39.25-32.54S-.39 128.28.45 115.5a180.4 180.4 0 013-23.1z"/>
  <path fill="url(#b)" d="M.88 100.6l65.69 97.93-3 3.38"/>
  <path fill="url(#c)" d="M168.65 0c-3 4.94-72.6 40.81-93.47 74.47s-26.83 60.17-19.26 85.09 22 23.79 30.28 32 19.43 18.19 37.3 14.17c23.4-5.27 45.94-20.89 57.16-64.65s3.86-82.08-.88-103.24A304.6 304.6 0 00168.65 0z"/>
  <path fill="url(#d)" d="M167.47 7.39L83.13 188.28l4.95 5"/>
</svg>
