<svg xmlns="http://www.w3.org/2000/svg" viewBox="0 0 31.83 28.35" height="60">
  <path fill="#61DAFB" d="M31.83 14.18c0-2.11-2.64-4.11-6.69-5.35.93-4.13.52-7.41-1.31-8.46A2.84 2.84 0 0022.38 0v1.45a1.5 1.5 0 01.74.17c.88.51 1.27 2.43 1 4.91-.07.61-.19 1.25-.33 1.91a31.44 31.44 0 00-4.12-.71 31.65 31.65 0 00-2.7-3.24c2.12-2 4.1-3 5.45-3V0c-1.82 0-4.16 1.27-6.52 3.48C13.54 1.28 11.2 0 9.42 0v1.47c1.34 0 3.33 1.07 5.45 3a30.64 30.64 0 00-2.68 3.24 30.3 30.3 0 00-4.13.71c-.15-.65-.26-1.28-.34-1.88-.3-2.48.07-4.41.95-4.92a1.44 1.44 0 01.75-.17V0A2.89 2.89 0 008 .4C6.13 1.45 5.72 4.72 6.66 8.84 2.63 10.08 0 12.07 0 14.18s2.64 4.11 6.69 5.35C5.75 23.65 6.17 26.93 8 28a2.85 2.85 0 001.46.36c1.78 0 4.12-1.27 6.48-3.48 2.36 2.19 4.7 3.45 6.48 3.45a2.89 2.89 0 001.47-.33c1.82-1.05 2.23-4.33 1.29-8.44 4.02-1.28 6.65-3.28 6.65-5.38zm-8.45-4.33c-.24.84-.54 1.7-.88 2.56-.27-.52-.55-1-.85-1.56s-.62-1-.93-1.52c.92.14 1.81.31 2.66.52zm-3 6.91c-.51.88-1 1.71-1.56 2.48-1 .08-1.95.13-2.93.13s-2 0-2.92-.12q-.81-1.16-1.57-2.47t-1.32-2.58c.4-.87.86-1.74 1.34-2.59s1-1.71 1.56-2.48C13.95 9 14.93 9 15.92 9s2 0 2.92.12q.81 1.16 1.57 2.47t1.35 2.58c-.41.83-.86 1.74-1.35 2.59zm2.1-.84c.35.87.65 1.74.9 2.58-.85.21-1.75.38-2.67.52.32-.5.64-1 .93-1.54s.6-1.05.87-1.56zm-6.58 6.92a26.75 26.75 0 01-1.8-2.08h3.58a25.32 25.32 0 01-1.75 2.08zM11.1 19c-.92-.14-1.81-.3-2.66-.51.24-.84.54-1.7.88-2.56.27.52.54 1 .85 1.56s.61 1.03.93 1.51zm4.8-13.49a26.75 26.75 0 011.8 2.08h-3.58a25.32 25.32 0 011.78-2.08zm-4.8 3.82c-.32.5-.64 1-.93 1.54s-.58 1-.84 1.56c-.35-.87-.65-1.74-.9-2.58.84-.2 1.74-.38 2.66-.51zm-5.88 8.13c-2.3-1-3.78-2.26-3.78-3.28s1.49-2.31 3.78-3.28c.56-.24 1.17-.45 1.8-.66a31.16 31.16 0 001.46 4A30.72 30.72 0 007 18.12c-.6-.2-1.21-.42-1.78-.66zm3.49 9.27c-.88-.51-1.27-2.43-1-4.91.07-.61.19-1.25.33-1.91a31.44 31.44 0 004.12.71 31.65 31.65 0 002.7 3.24c-2.12 2-4.1 3-5.45 3a1.55 1.55 0 01-.7-.13zm15.39-4.94c.3 2.48-.07 4.41-.95 4.92a1.44 1.44 0 01-.75.17c-1.34 0-3.33-1.07-5.45-3a30.64 30.64 0 002.68-3.24 30.3 30.3 0 004.13-.71 18.16 18.16 0 01.34 1.86zm2.5-4.33c-.56.24-1.17.45-1.8.66a31.16 31.16 0 00-1.46-4 30.72 30.72 0 001.44-3.93c.64.2 1.25.42 1.82.66 2.3 1 3.78 2.26 3.78 3.28s-1.48 2.36-3.78 3.33z" />
  <circle fill="#61DAFB" cx="15.91" cy="14.18" r="2.97" />
</svg>
